<?xml version="1.0" encoding="UTF-8"?> <!-- Generator: Adobe Illustrator 25.2.1, SVG Export Plug-In . SVG Version: 6.00 Build 0) --> <svg xmlns="http://www.w3.org/2000/svg" xmlns:xlink="http://www.w3.org/1999/xlink" x="0px" y="0px" viewBox="0 0 1080 642.8" style="enable-background:new 0 0 1080 642.8;" xml:space="preserve"> <style type="text/css"> .st0{fill:#EF3E2D;} .st1{fill:#4DB96D;} </style> <g id="Слой_1"> <g> <g> <path class="st0" d="M292.4,245.9h-7.5c-61.9,0-112.1,50.2-112.1,112.1l0,0c0,61.9,50.2,112.1,112.1,112.1h7.5 c61.9,0,112.1-50.2,112.1-112.1l0,0C404.5,296,354.3,245.9,292.4,245.9z M354.1,362.1c0,35.4-28.7,64.1-64.1,64.1h-2.6 c-35.4,0-64.1-28.7-64.1-64.1v-8.3c0-35.4,28.7-64.1,64.1-64.1h2.6c35.4,0,64.1,28.7,64.1,64.1V362.1z"></path> <g> <path class="st1" d="M318.1,231.2h-29.4v-13.8c0-24.6,19.9-44.5,44.5-44.5h29.4v13.8C362.5,211.2,342.6,231.2,318.1,231.2z"></path> </g> </g> <path class="st0" d="M474.5,245.8L474.5,245.8c-26.6,0-48.1,21.5-48.1,48.1V470h48.1V245.8z"></path> <path class="st0" d="M724,377.8c0-37.3-30.3-67.6-67.6-67.6c-17.3,0-33.1,6.5-45.1,17.2c-12-10.7-27.8-17.2-45.1-17.2 c-37.3,0-67.6,30.3-67.6,67.6l0,0V470h45.1v-28.5l0,0v-63.7c0-12.4,10.1-22.5,22.5-22.5s22.5,10.1,22.5,22.5v63.7V470h45.1v-28.5 v-63.7c0-12.4,10.1-22.5,22.5-22.5c12.4,0,22.5,10.1,22.5,22.5v63.7V470H724V377.8L724,377.8z"></path> <path class="st0" d="M907.2,390.1c0-44.1-36.3-79.9-81.1-79.9c-44.8,0-81.1,35.8-81.1,79.9c0,44.1,36.3,79.9,81.1,79.9 c13.5,0,26.2-4.6,37.3-11.8v11.9h43.7v-78.2C907.2,391.2,907.2,390.7,907.2,390.1z M826.8,429h-1.5c-20.2,0-36.6-16.4-36.6-36.6 v-4.7c0-20.2,16.4-36.6,36.6-36.6h1.5c20.2,0,36.6,16.4,36.6,36.6v2.4v2.3C863.4,412.7,847,429,826.8,429z"></path> </g> </g> <g id="Режим_изоляции"> </g> </svg> 